<svg height="32" viewBox="0 0 32 32" width="32" xmlns="http://www.w3.org/2000/svg" xmlns:xlink="http://www.w3.org/1999/xlink"><g fill="none" fill-rule="evenodd"><circle cx="16" cy="16" fill="#7db004" r="16"/><g fill="#fff" fill-rule="nonzero" transform="translate(.962 3.609)"><path d="m3.33296586 10.9192343h-.69808554c-.00773731-.0001941-.01437451.005484-.01543678.0131499l-.19896296 1.3250857h-1.38283066l.19801007-1.3207024c.00061393-.0045274-.00078418-.0090968-.00382637-.0125055-.0030422-.0034087-.00742375-.0053154-.01199156-.0052218h-.69751381c-.00774908-.0000943-.01439937.0055016-.01562736.0131534l-.50655512 3.374366c-.00060901.0044562.00070776.0089609.00362098.0123875.00294028.0035072.00724102.0055882.01181581.0057174h.69827612c.00760481-.0000894.014041-.0056406.0152462-.0131499l.19915353-1.3250856h1.38283066l-.19820064 1.3203212c-.00065967.0040439.00031543.0081841.00271048.0115086.00239504.0033245.00601351.0055604.01005821.0062151h.70075363c.00763461-.00001.01411516-.0055995.0152462-.0131499l.50655512-3.3745565c.00070991-.0044047-.00062259-.0088932-.00362098-.012197-.00285251-.0034894-.00711825-.0055303-.01162523-.0055303m2.14247275.0000036c-.97077255.0304483-1.78639142.7391282-1.95208578 1.6961401-.07583729.4328949.0435165.8771756.32607818 1.2137884.28387727.3234544.69624587.504838 1.12650386.4955016.97072857-.0304642 1.78628377-.739158 1.9518952-1.6961401.07588429-.432807-.04340139-.8770241-.3258876-1.2135978-.28379386-.3235903-.69619948-.5050599-1.12650386-.4956922m.75087552 1.6967118c-.09795921.5677206-.58155814.9883315-1.15737742 1.0066306-.25045454.0058619-.49069649-.0992613-.65634906-.2872003-.16432662-.1965792-.23350942-.455666-.18905293-.7079956.09797396-.5677888.58167618-.9884202 1.15756801-1.0066306.25042394-.0059098.49066084.0991415.65634906.2870098.16429049.1966696.23340307.4558244.18886234.7081861m3.93733207-1.6967118h-.77374484c-.00437845-.0000292-.00855267.0018492-.01143465.0051456l-1.07885948 1.2021631.17838058-1.1893944c.00068638-.0044617-.00063964-.0089981-.00362097-.0123876-.00294465-.0034766-.00725987-.005495-.01181581-.0055267h-.67959952c-.00766518-.0000728-.01419254.005557-.0152462.0131498l-.50674569 3.374366c-.0005571.0044841.00083005.0089923.00381155.0123875.00285251.0034895.00711825.0055268.01162523.0055268h.67959952c.00767706 0 .01421969-.0055699.01543678-.0131499l.19496083-1.2987859.75907036 1.3031692c.00281935.0048059.00795928.0077741.013531.0078137h.83854119c.00863076 0 .01562736-.0069966.01562736-.0156274-.00001829-.002741-.00074012-.0054315-.00209635-.0078136l-1.04436494-1.7636046 1.42856925-1.5915131c.0042085-.0045317.0052625-.0111568.0026681-.0167708-.0024255-.0056404-.007963-.0093383-.0141027-.0093383m1.6168598 1.6176222 1.4281882-1.5913225c.005703-.0062746.0052776-.0159747-.0009529-.0217259-.0028383-.0025269-.0064914-.0039475-.0102912-.0040021h-.7743166c-.0041916-.0002363-.0083052.0012035-.0114346.0040021l-1.0786689 1.2021632.1785711-1.1892039c.0007932-.0044357-.0004685-.0089917-.0034304-.0123875-.0029085-.0035477-.0072289-.0056383-.0118158-.0057173h-.6801712c-.0076048.0000893-.014041.0056406-.0152462.0131498l-.5063646 3.3732225c-.0009678.0046223.0001804.0094353.0031305.013123.0029502.0036877.0073937.0058643.0121157.0059348h.6797901c.0076481-.0000748.0141471-.005611.0154368-.0131499l.1949608-1.2989765.7590704 1.3041221c.0029287.004763.0081303.0076528.0137216.0076231h.8385412c.0056336.0001218.010886-.0028357.013703-.0077159.0028171-.0048802.0027511-.0109077-.000172-.0157251zm6.1569888-1.6174326h-.6982762c-.0077068-.000084-.0142954.0055285-.0154367.0131508l-.5063646 3.3741754c-.0006556.0044769.0006372.0090201.0035517.012481.0029144.0034609.0071714.0055081.0116945.0056239h.6982761c.0076049-.0000894.0140411-.0056406.0152462-.0131499l.5067457-3.3743659c.000742-.0044652-.0005909-.009025-.0036209-.0123876-.0028947-.0035414-.0072422-.0055749-.0118158-.0055277m-2.430626.000001h-.6653062c-.0058387 0-.0111672.0033257-.0137216.008576l-1.6976648 3.3732225c-.0025663.0048288-.0023864.0106551.000473.0153163.0028595.0046613.0079716.0074619.0134392.0073624h.6837922c.0058387.0000046.0111672-.0033257.0137216-.008576l.2818642-.5601074h1.2602893l.1128219.5564864c.0015272.0072065.0078797.0123898.0152462.0123898h.6794089c.0046342.0000763.0090524-.0019575.0120064-.005529.0029648-.0036173.0041536-.0083723.0032398-.0129592l-.6851262-3.3736037c-.0014487-.0072823-.0078214-.0125397-.0152462-.0125781m-.2572797 2.1706782h-.7901345l.562966-1.118309zm4.3977674-2.1706782h-.957271c-.0076771-.0000035-.0142197.0055698-.0154368.0131498l-.5063645 3.3732225c-.0005923.0045137.0007195.0090703.0036209.0125782.0029403.0035071.0072411.0055881.0118158.0057173h.9643224c.9707726-.0304484 1.7863914-.7391282 1.9520858-1.6961402.0759379-.4328093-.0433538-.8770489-.3258876-1.2135978-.2838296-.3235195-.6962302-.5049171-1.1265039-.4955016m.7516379 1.6961402c-.097974.5677888-.5816762.9884202-1.157568 1.0066306h-.2692861l.3005408-2.0010643h.2797678c.2504041-.0058842.4905967.099248.6561585.2872004.1645371.1964731.2338085.4556305.1892435.7079956m1.841932-.2660463h.0091477c.1468753-.1877902.3714481-.2982519.6098481-.299969.0887137.001314.1763606.0195549.2582326.0537428l-.1730444.5818333c-.073303-.0544838-.162734-.0828629-.2540399-.0806143-.4467137 0-.5553429.3849666-.610801.7253381l-.1612286.989288h-.6449144l.3582858-2.1977402h.6449144zm1.4011261 1.9694284h-.6445333l.3580952-2.1975497h.6445333zm.5681116-3.1195638c-.0415508.2127274-.2260023.3675619-.4427116.3716262-.1717105.0089711-.3181957-.1229253-.3272217-.2946329-.0012322-.0255402.0006235-.0511357.0055268-.076231.0425507-.2123606.2263922-.3670121.4429022-.3725791.0956675-.0042432.1880224.0354977.2507155.1078844.062693.0723868.0888394.1694699.0709794.2635512"/><path d="m25.211 13.361.667-1.24h.705l-1.406 2.242h-.332l-.671-2.242h.709z"/><path d="m27.0589172 13.320702c-.0453575.2774809.0142933.5907904.3502815.5907904.2020122-.0086531.3847717-.1223717.48178-.2997785l.578784.0939547c-.2193324.4252279-.6598896.6902408-1.1383196.6847451-.6999913 0-1.0495106-.4834952-.9408814-1.150326.1086292-.6668309.5576299-1.1905379 1.2900194-1.1905379.7413467 0 .9860482.5336171.8781814 1.1949212l-.0123876.076231zm.9429777-.3895405c.0041927-.2237381-.1072952-.4430928-.3559989-.4430928-.247604.0203323-.4527579.2002579-.5052211.4430928zm1.6572623 1.0742856c-.0454946.2289007-.2431627.3959697-.4764439.4026903-.0896677.0032427-.1769503-.0292718-.2426425-.0903892-.0656923-.0611174-.1044119-.1458301-.107639-.2354984-.0008148-.0255582.0012308-.0511274.0060985-.076231.0456379-.2265404.2430894-.3905806.4741569-.3939238.1021579-.0057908.2012891.0357954.2687397.1127382s.0957015.180665.0765868.2811856m-.2366973-3.0620094h.6538716l-.3910652 2.4033734h-.6538715zm-20.07619598 11.710143h-3.98348577l.15448585-.7694698 2.01897028-1.8100296c.35787702-.3123298.69927218-.6430563 1.02280288-.9908403.15579441-.1715066.28652059-.3642082.38828628-.5723672.07976315-.1772616.12015062-.3697079.11837997-.5640805.01108418-.2131573-.06572069-.421536-.21249204-.5765104-.16218041-.1494157-.3783185-.226165-.59841071-.212492-.20543184.0010766-.40840032.0448146-.59604312.1284422-.26102612.125916-.5058754.2829217-.72922058.4676009l-.49305254-.6860119c.29656535-.2489284.63108082-.4487584.99084029-.5918998.31257345-.1176393.64384079-.1777968.9778185-.17757.44683924-.0236499.88669385.1184019 1.23529492.3989405.30806627.2706493.47677327.6664032.45872237 1.0760739.0024681.2955901-.0544957.5886616-.16750766.8618061-.13209668.2981241-.31004471.5737339-.52738274.8168217-.37863897.4107782-.78525958.7948528-1.21694602 1.1494695l-1.33355029 1.1323043v.0319626h2.66710058zm5.64790808-4.3374419c.0119885.7941135-.1022921 1.5850872-.3385667 2.3433314-.1679797.5936908-.4924065 1.1313356-.939345 1.5566965-.3823987.3436235-.8798476.5311966-1.3939241.525607-.4793256.0347348-.9447644-.1700583-1.2429896-.5469154-.2994932-.4624969-.4418852-1.0092324-.4060433-1.5590641-.0075421-.7664025.1124764-1.5287199.3551399-2.2557302.1772965-.5954236.5060564-1.1346552.9541425-1.5649831.3767015-.3431219.8690055-.5314615 1.3785347-.5273828.4631332-.0318152.9143534.1555541 1.2187217.5060744.3086318.444913.4549177.9824091.4143299 1.5223663zm-1.7165095-1.1837996c-.3192843.0253782-.606289.2044249-.7694698.4800307-.2761139.4067568-.4745842.8610911-.5853889 1.3400612-.1500972.5514347-.2273066 1.120157-.2296571 1.6916497-.0182679.3202105.0378495.6403025.1639562.9352017.1024921.2092055.3209254.3360604.5534264.3214016.3252887-.0226524.6182815-.2048309.7824915-.4865417.2734083-.4122032.4654758-.872884.5658563-1.3572262.1417134-.5812495.2130557-1.1774242.2124953-1.7756995.0007859-.7659184-.2304496-1.1488775-.6937099-1.1488775zm5.7414282 5.5230172h-3.9834857l.1544858-.7694698 2.0195622-1.8094377c.357877-.3123298.6992722-.6430563 1.0228029-.9908403.1557944-.1715066.2865206-.3642082.3882863-.5723672.0797631-.1772616.1201506-.3697079.1183799-.5640805.0110842-.2131573-.0657207-.421536-.212492-.5765104-.1621804-.1494157-.3783185-.226165-.5984107-.212492-.2054319.0010766-.4084003.0448146-.5960431.1284422-.2610262.125916-.5058754.2829217-.7292206.4676009l-.4930526-.6860119c.2965654-.2489284.6310809-.4487584.9908403-.5918998.3125735-.1176393.6438408-.1777968.9778185-.17757.4468393-.0236499.8866939.1184019 1.235295.3989405.3080662.2706493.4767732.6664032.4587223 1.0760739.0024681.2955901-.0544956.5886616-.1675076.8618061-.1320967.2981241-.3100447.5737339-.5273828.8168217-.3789578.4114306-.7859764.7961008-1.2181298 1.1512452l-1.3335503 1.1323043v.0278193h2.670652zm4.8370054 0h-3.9834858l.1544858-.7694698 2.0195622-1.8094377c.3578756-.3123314.6992707-.6430578 1.0228029-.9908403.1558007-.1715017.2865275-.3642042.3882863-.5723672.0797631-.1772616.1201506-.3697079.1183799-.5640805.0110842-.2131573-.0657206-.421536-.212492-.5765104-.1621804-.1494157-.3783185-.226165-.5984107-.212492-.2054318.0010766-.4084003.0448146-.5960431.1284422-.2610261.125916-.5058754.2829217-.7292206.4676009l-.4930525-.6860119c.2965653-.2489284.6310808-.4487584.9908403-.5918998.3125734-.1176393.6438407-.1777968.9778184-.17757.4468393-.0236499.8866939.1184019 1.235295.3989405.3080662.2706493.4767732.6664032.4587223 1.0760739.0024681.2955901-.0544956.5886616-.1675076.8618061-.1320967.2981241-.3100447.5737339-.5273828.8168217-.3789578.4114306-.7859764.7961008-1.2181298 1.1512452l-1.3335503 1.1323043v.0278193h2.6671006zm-1.1107203-19.15179626h-.8340922l-2.0107946-3.50413184h-7.462422l-2.80770398 3.50413184h-3.45271036c-.54519448 0-.95991446.48690036-.87131022 1.02511645l.53120247 3.23620448c0 .02558738.02093513.04891912.046593.04891912h2.2692764c.1164825-1.01352107.97852346-1.80331117 2.02228419-1.80331117 1.0437607 0 1.9058721.7897901 2.0223546 1.80331117h5.200265c.1164825-1.01352107.978594-1.80331117 2.0223547-1.80331117s1.9058017.7897901 2.0223546 1.80331117h1.3023836c.3284771 0 .5940784-.26563648.5940784-.59414884v-3.1220481c0-.32844187-.2656013-.59404311-.5941136-.59404311zm-5.8946135-2.10620091h2.0408579l1.2652008 2.10620091.0441964.1307212.0094455.03468042h-3.3597006zm-6.6750638 5.31213051c.6593861 0 1.2069067.47759585 1.3164108 1.1043457.0139567.07454175.0209351.15377099.0209351.23300023 0 .73618348-.5987658 1.33498457-1.3373812 1.33498457-.73854482 0-1.33734591-.59876585-1.33734591-1.33498457 0-.07926448.00704887-.15849373.02107611-.23300023.10946887-.6267146.65698947-1.1043457 1.3163051-1.1043457zm9.244939 0c.6593509 0 1.2068715.47759585 1.3163404 1.1043457.0139567.07454175.0209351.15377099.0209351.23300023 0 .73618348-.5987659 1.33498457-1.3373107 1.33498457-.7386153 0-1.3373459-.59876585-1.3373459-1.33498457 0-.07926448.0069783-.15849373.0210056-.23300023.1094689-.6267146.6569895-1.1043457 1.3163755-1.1043457zm-4.1680996-5.31213051v2.27163777h-2.6295792l-.9898016-.00317199.0662241-.16226487 1.6846435-2.10620091z"/></g></g></svg>