<?xml version="1.0" encoding="UTF-8"?>
<svg width="72px" height="51px" viewBox="0 0 72 51" version="1.1" xmlns="http://www.w3.org/2000/svg" xmlns:xlink="http://www.w3.org/1999/xlink">
    <!-- Generator: Sketch 62 (91390) - https://sketch.com -->
    <title>faq</title>
    <desc>Created with Sketch.</desc>
    <g id="Page-1" stroke="none" stroke-width="1" fill="none" fill-rule="evenodd">
        <g id="top_pc3" transform="translate(-775.000000, -2574.000000)" fill="#0896FF" fill-rule="nonzero">
            <g id="ガイド" transform="translate(214.000000, 2550.000000)">
                <g id="Group-3" transform="translate(528.000000, 0.000000)">
                    <g id="faq" transform="translate(33.679012, 24.763359)">
                        <path d="M52.6973541,11.2465507 C49.4130559,11.2465507 46.3341473,12.0867774 43.6802541,13.5544566 C43.6429357,13.5756678 43.6057554,13.599 43.5685752,13.6200786 C43.5594529,13.5979395 43.5514364,13.5767283 43.5423141,13.5544566 C40.1945746,5.6067704 32.074499,0 22.5900893,0 C10.1135708,0 0,9.7005228 0,21.6663967 C0,29.5822661 4.42803897,36.5062491 11.0358889,40.2859439 L11.0358889,47.9641159 C11.0358889,47.9641159 21.5310752,47.3875702 33.229297,40.7832128 C34.1194107,40.3274382 34.9741409,39.8146586 35.7876827,39.252563 C36.3464916,38.8662549 36.885121,38.4559517 37.4026032,38.0232442 C37.4338401,37.998056 37.4620362,37.9720723 37.4932731,37.9479446 C37.5093062,37.9720723 37.5254776,37.9981885 37.5416489,38.0232442 C38.762929,39.8251316 40.324498,41.3944917 42.1398322,42.6488662 C42.7913844,43.0989404 43.473897,43.5073876 44.1857115,43.8743406 C53.544206,49.1556524 61.9401616,49.6183206 61.9401616,49.6183206 L61.9401616,43.4763663 C67.2279066,40.4519211 70.7667994,34.9127613 70.7667994,28.5797741 C70.7667994,19.0067833 62.6779607,11.2465507 52.6973541,11.2465507 Z M22.5902275,4.52049427 C27.3646368,4.52049427 31.8540438,6.30408704 35.2299795,9.54210201 C37.2859485,11.5142089 38.7800679,13.8820363 39.6338306,16.4662175 C40.1825497,18.1262553 40.4654787,19.8760428 40.4654787,21.6663967 C40.4654787,24.4697156 39.7847629,27.1399345 38.4406084,29.6033447 C37.6160093,31.1147719 36.5507755,32.507284 35.2963234,33.7230808 C34.5966719,34.4019702 33.8374492,35.0257107 33.0320622,35.5858177 C32.3876973,36.0309867 31.7050465,36.438506 31.0063626,36.7988304 L30.9217742,36.8413853 L30.8391207,36.8885801 C25.3871746,39.9653903 20.2341906,41.5847292 16.870418,42.3999003 C16.482721,42.4945551 16.1081545,42.5815208 15.7487918,42.6586764 L15.7487918,37.7200573 L13.450253,36.4048333 C10.8354751,34.9079888 8.64363933,32.7824987 7.11524232,30.2581065 C5.54468931,27.6622591 4.7130412,24.6909744 4.7130412,21.6663967 C4.7130412,17.0870415 6.57260471,12.7799844 9.94854041,9.54210201 C13.3254436,6.30421961 17.8149889,4.52049427 22.5902275,4.52049427 Z M55.1077176,19.7187572 L60.9387222,34.0891057 L57.7397683,34.0891057 L56.1807844,30.2537762 L49.985342,30.2537762 L48.4263582,34.0891057 L46.1587453,34.0891057 L51.9897498,19.7187572 L55.1077176,19.7187572 Z M21.8435911,11.8816092 C19.3600151,11.8816092 17.3875518,12.6065998 15.9262012,14.0565809 C14.4648507,15.506562 13.7341754,17.4640365 13.7341754,19.9290044 C13.7341754,22.3663536 14.4612513,24.3169235 15.9154031,25.7807139 C17.3695548,27.2445044 19.3060243,27.9763996 21.7248114,27.9763996 C21.9767684,27.9763996 22.365502,27.9591379 22.8910123,27.9246146 C24.6907051,29.0224574 27.0231069,29.9338741 29.8882178,30.6588647 L32.0478491,28.6081771 C29.8954166,28.3872276 27.7717791,27.9315193 25.6769367,27.2410521 C28.5204513,25.8670223 29.9422086,23.4400301 29.9422086,19.9600755 C29.9422086,17.4812982 29.213333,15.5151929 27.7555819,14.0617594 C26.2978307,12.608326 24.3271671,11.8816092 21.8435911,11.8816092 Z M53.0830632,22.6122463 L50.7547107,28.3409663 L55.4114157,28.3409663 L53.0830632,22.6122463 Z M21.8435911,13.9840819 C23.2257551,13.9840819 24.3325662,14.5226463 25.1640243,15.5997751 C25.9954823,16.6769039 26.4112114,18.1096234 26.4112114,19.8979334 C26.4112114,21.7345762 25.9954823,23.1880096 25.1640243,24.2582338 C24.3325662,25.3284579 23.2077582,25.86357 21.7896003,25.86357 C20.4290326,25.86357 19.3348194,25.3198271 18.5069607,24.2323412 C17.679102,23.1448554 17.2651727,21.7069575 17.2651727,19.9186474 C17.2651727,18.116528 17.6809017,16.6769039 18.5123598,15.5997751 C19.3438178,14.5226463 20.4542283,13.9840819 21.8435911,13.9840819 Z" id="Shape"></path>
                    </g>
                </g>
            </g>
        </g>
    </g>
</svg>