<?xml version="1.0" encoding="UTF-8"?>
<svg width="84px" height="48px" viewBox="0 0 84 48" version="1.1" xmlns="http://www.w3.org/2000/svg" xmlns:xlink="http://www.w3.org/1999/xlink">
    <!-- Generator: Sketch 62 (91390) - https://sketch.com -->
    <title>鍵と車</title>
    <desc>Created with Sketch.</desc>
    <g id="Page-1" stroke="none" stroke-width="1" fill="none" fill-rule="evenodd">
        <g id="top_pc3" transform="translate(-238.000000, -2576.000000)" fill="#0896FF" fill-rule="nonzero">
            <g id="ガイド" transform="translate(214.000000, 2550.000000)">
                <g id="Group-2">
                    <g id="鍵と車" transform="translate(9.182927, 23.000000)">
                        <g id="鍵のアイコン6" transform="translate(25.729205, 26.059238) rotate(45.000000) translate(-25.729205, -26.059238) translate(8.229205, 8.059238)">
                            <path d="M34.2671596,34.2466306 L33.4148861,28.206 C33.3494627,27.7421879 32.978706,27.3771273 32.5060302,27.3133358 L30.1280106,26.9891548 L30.1268789,26.987553 L29.7982762,24.6477392 C29.7334893,24.1828129 29.3621669,23.8166381 28.8899155,23.753334 L27.3210251,23.5399525 C26.8449543,23.4750467 26.4708735,23.103997 26.4104717,22.6346832 L25.9017246,18.7003586 C25.8718066,18.4690096 25.7654316,18.2561853 25.598584,18.0914136 L23.0687112,15.6008958 L16.7647877,21.8085266 L30.5963012,35.4280283 C30.8379084,35.6659235 31.1810103,35.7750517 31.5178882,35.7210795 L33.3816439,35.4253123 C33.9529147,35.3347087 34.3464457,34.8108657 34.2671596,34.2466306 Z M31.0323399,32.6324808 L19.3079574,21.0887124 L20.2151158,20.1954911 L31.939569,31.7392594 L31.0323399,32.6324808 Z" id="Shape"></path>
                            <path d="M25.4080848,9.4819509 L16.2670242,0.589584374 C15.6456003,-0.014928141 14.6377423,-0.014928141 14.0163184,0.589584374 L0.867080838,13.3815384 C0.246231147,13.9854923 0.246231147,14.9658527 0.867080838,15.5698765 L10.0082133,24.4628016 C10.6302114,25.0673141 11.6374234,25.0673141 12.258919,24.4628016 L25.4080848,11.6714061 C26.0295805,11.0668936 26.0295805,10.0864634 25.4080848,9.4819509 Z M13.6400763,9.45730399 L9.98287689,13.0149767 C9.43961547,13.5435237 8.55779358,13.5435237 8.01395796,13.0144182 C7.47012234,12.4854523 7.47062476,11.6276282 8.01338377,11.0990812 L11.6711574,7.54140847 C12.2144188,7.01286149 13.0956665,7.01237274 13.6400763,7.54196704 C14.1834095,8.0704442 14.1834095,8.92889665 13.6400763,9.45730399 Z" id="Shape"></path>
                        </g>
                        <g id="車アイコン" transform="translate(42.961061, 3.631579)">
                            <path d="M7.26982145,44.4975586 C7.26982145,45.577278 8.16997356,46.4531878 9.28067812,46.4531878 L14.8331239,46.4531878 C15.9447978,46.4531878 16.8449499,45.577278 16.8449499,44.4975586 L16.8449499,40.47355 L7.26982145,40.47355 L7.26982145,44.4975586 Z" id="Path"></path>
                            <path d="M38.2962058,44.4975586 C38.2962058,45.577278 39.1964656,46.4531878 40.3088934,46.4531878 L45.8613392,46.4531878 C46.9711822,46.4531878 47.871442,45.577278 47.871442,44.4975586 L47.871442,40.47355 L38.2962058,40.47355 L38.2962058,44.4975586 Z" id="Path"></path>
                            <path d="M48.661956,19.1198564 L45.8392608,9.16514533 C44.3130517,3.7929545 39.2901642,0.0718834928 33.5634606,0.0718834928 L21.5778028,0.0718834928 C15.85013,0.0718834928 10.8283194,3.79305929 9.30372581,9.16514533 L6.48016899,19.1198564 C2.69087108,20.5317488 0,24.1031848 0,28.286364 C0,33.7067566 4.51605388,38.1014996 10.0871317,38.1014996 L45.0523008,38.1014996 C50.6233787,38.1014996 55.142125,33.7066518 55.142125,28.286364 C55.142125,24.1031848 52.4502847,20.5335302 48.661956,19.1198564 Z M10.0871317,32.5090476 C7.68898776,32.5090476 5.74619715,30.6179669 5.74619715,28.286364 C5.74619715,25.9521414 7.68898776,24.0610607 10.0871317,24.0610607 C12.4853833,24.0610607 14.4298971,25.9522462 14.4298971,28.286364 C14.4298971,30.6179669 12.4853833,32.5090476 10.0871317,32.5090476 Z M39.6960835,14.530525 C39.5307648,14.7412506 39.2743324,14.8660512 39.0018527,14.8660512 L16.1401646,14.8660512 C15.8668234,14.8660512 15.610391,14.7412506 15.4459339,14.530525 C15.2806152,14.3188564 15.2248269,14.0452591 15.2991395,13.7888467 L16.3265924,10.1666941 C17.1401541,7.2955458 19.8461031,5.29003827 22.9065988,5.29003827 L32.2350955,5.29003827 C35.2947295,5.29003827 38.0006785,7.29565059 38.8151019,10.1649127 L39.8418008,13.7888467 C39.9162212,14.0453639 39.8622637,14.3189612 39.6960835,14.530525 Z M45.0523008,32.5090476 C42.6558801,32.5090476 40.710397,30.6179669 40.710397,28.286364 C40.710397,25.9521414 42.6558801,24.0610607 45.0523008,24.0610607 C47.4514141,24.0610607 49.3950663,25.9522462 49.3950663,28.286364 C49.3950663,30.6179669 47.4513064,32.5090476 45.0523008,32.5090476 Z" id="Shape"></path>
                        </g>
                    </g>
                </g>
            </g>
        </g>
    </g>
</svg>