<svg xmlns="http://www.w3.org/2000/svg" width="46" height="46" viewBox="0 0 46 46">
  <path fill="#1BA1FF" d="M23,0 C35.7025492,0 46,10.2974508 46,23 C46,35.7025492 35.7025492,46 23,46 C10.2974508,46 0,35.7025492 0,23 C0,10.2974508 10.2974508,0 23,0 Z M29.3940417,20.4607671 C29.2924792,20.4607671 29.0552292,20.5818296 28.6831042,20.8247671 C28.3109792,21.0677046 27.8909167,21.3382671 27.4221042,21.6372671 C26.9541042,21.9362671 26.3439167,22.2068296 25.5939792,22.4489546 C24.8440417,22.6910796 24.0900417,22.8129546 23.3336042,22.8129546 C22.5771667,22.8129546 21.8239792,22.6918921 21.0740417,22.4489546 C20.3241042,22.2060171 19.7139167,21.9354546 19.2459167,21.6372671 C18.7779167,21.3382671 18.3570417,21.0668921 17.9849167,20.8247671 C17.6127917,20.5826421 17.3755417,20.4607671 17.2739792,20.4607671 C16.5857917,20.4607671 15.9561042,20.5737046 15.3865417,20.7995796 C14.8169792,21.0254546 14.3343542,21.3268921 13.9394792,21.7047046 C13.5446042,22.0825171 13.1944167,22.5399546 12.8897292,23.0762046 C12.5850417,23.6124546 12.3429167,24.1625171 12.1617292,24.7263921 C11.9813542,25.2910796 11.8318542,25.9028921 11.7132292,26.5634546 C11.5946042,27.2240171 11.5157917,27.8382671 11.4759792,28.4086421 C11.4361667,28.9790171 11.4166667,29.5623921 11.4166667,30.1612046 C11.4166667,31.5148296 11.8286042,32.5848921 12.6524792,33.3689546 C13.4763542,34.1530172 14.5707917,34.5446422 15.9366042,34.5446422 L30.7314167,34.5446422 C32.0964168,34.5446422 33.1916668,34.1530172 34.0155418,33.3689546 C34.8394168,32.5848921 35.2513543,31.5156421 35.2513543,30.1612046 C35.2513543,29.5632046 35.2318543,28.9790171 35.1912293,28.4086421 L35.1920418,28.4086421 C35.1522293,27.8390796 35.0734168,27.2240171 34.9547918,26.5634546 C34.8361668,25.9028921 34.6866668,25.2910796 34.5062918,24.7263921 C34.3259168,24.1625171 34.0829793,23.6124546 33.7782918,23.0762046 C33.4736043,22.5399546 33.1242293,22.0833296 32.7285418,21.7047046 C32.3336668,21.3268921 31.8510418,21.0246421 31.2814792,20.7995796 C30.7119167,20.5745171 30.0822292,20.4607671 29.3940417,20.4607671 Z M23.3344167,8.54545455 C21.5396042,8.54545455 20.0080417,9.18001705 18.7389167,10.4491421 C17.4689792,11.7190796 16.8344167,13.2506421 16.8344167,15.0446421 C16.8344167,16.8386421 17.4689792,18.3710171 18.7389167,19.6401421 C20.0088542,20.9092671 21.5404167,21.5446421 23.3344167,21.5446421 C25.1292292,21.5446421 26.6607917,20.9092671 27.9307292,19.6401421 C29.2006667,18.3710171 29.8352292,16.8386421 29.8352292,15.0446421 C29.8352292,13.2506421 29.2006667,11.7182671 27.9307292,10.4491421 C26.6607917,9.18001705 25.1292292,8.54545455 23.3344167,8.54545455 Z"/>
</svg>
